<svg width="396" height="309" viewBox="0 0 396 309" fill="none" xmlns="http://www.w3.org/2000/svg">
<g filter="url(#filter0_d_6_14)">
<path fill-rule="evenodd" clip-rule="evenodd" d="M325 201H342C344.209 201 346 199.209 346 197V163C346 160.791 344.209 159 342 159H325H25C13.402 159 4 168.402 4 180C4 185.819 6.3664 191.084 10.1893 194.888C10.2018 194.9 10.2143 194.913 10.2269 194.925L102.151 286.849L114.172 298.87C115.734 300.432 118.266 300.432 119.828 298.87L143.87 274.828C145.432 273.266 145.432 270.734 143.87 269.172L131.849 257.151L82.5269 207.828C80.0071 205.309 81.7917 201 85.3553 201H325Z" fill="#00AC0E"/>
</g>
<g filter="url(#filter1_d_6_14)">
<path fill-rule="evenodd" clip-rule="evenodd" d="M71 99.0415H54C51.7909 99.0415 50 100.832 50 103.042V137.042C50 139.251 51.7909 141.042 54 141.042H71H371C382.598 141.042 392 131.639 392 120.042C392 114.223 389.634 108.957 385.811 105.154C385.798 105.141 385.786 105.129 385.773 105.116L293.849 13.1923L281.828 1.17144C280.266 -0.390652 277.734 -0.390652 276.172 1.17144L252.13 25.2131C250.568 26.7752 250.568 29.3078 252.13 30.8699L264.151 42.8907L313.473 92.2131C315.993 94.7329 314.208 99.0415 310.645 99.0415H71Z" fill="#00AC0E"/>
</g>
<defs>
<filter id="filter0_d_6_14" x="0" y="159" width="350" height="149.042" filterUnits="userSpaceOnUse" color-interpolation-filters="sRGB">
<feFlood flood-opacity="0" result="BackgroundImageFix"/>
<feColorMatrix in="SourceAlpha" type="matrix" values="0 0 0 0 0 0 0 0 0 0 0 0 0 0 0 0 0 0 127 0" result="hardAlpha"/>
<feOffset dy="4"/>
<feGaussianBlur stdDeviation="2"/>
<feComposite in2="hardAlpha" operator="out"/>
<feColorMatrix type="matrix" values="0 0 0 0 0 0 0 0 0 0 0 0 0 0 0 0 0 0 0.25 0"/>
<feBlend mode="normal" in2="BackgroundImageFix" result="effect1_dropShadow_6_14"/>
<feBlend mode="normal" in="SourceGraphic" in2="effect1_dropShadow_6_14" result="shape"/>
</filter>
<filter id="filter1_d_6_14" x="46" y="0" width="350" height="149.042" filterUnits="userSpaceOnUse" color-interpolation-filters="sRGB">
<feFlood flood-opacity="0" result="BackgroundImageFix"/>
<feColorMatrix in="SourceAlpha" type="matrix" values="0 0 0 0 0 0 0 0 0 0 0 0 0 0 0 0 0 0 127 0" result="hardAlpha"/>
<feOffset dy="4"/>
<feGaussianBlur stdDeviation="2"/>
<feComposite in2="hardAlpha" operator="out"/>
<feColorMatrix type="matrix" values="0 0 0 0 0 0 0 0 0 0 0 0 0 0 0 0 0 0 0.25 0"/>
<feBlend mode="normal" in2="BackgroundImageFix" result="effect1_dropShadow_6_14"/>
<feBlend mode="normal" in="SourceGraphic" in2="effect1_dropShadow_6_14" result="shape"/>
</filter>
</defs>
</svg>
